<?xml version="1.0" standalone="no"?>
<!DOCTYPE svg PUBLIC "-//W3C//DTD SVG 20010904//EN"
 "http://www.w3.org/TR/2001/REC-SVG-20010904/DTD/svg10.dtd">
<svg version="1.0" xmlns="http://www.w3.org/2000/svg"
 width="277.000000pt" height="277.000000pt" viewBox="0 0 277.000000 277.000000"
 preserveAspectRatio="xMidYMid meet">
<metadata>
Created by potrace 1.14, written by Peter Selinger 2001-2017
</metadata>
<g transform="translate(0.000000,277.000000) scale(0.100000,-0.100000)"
fill="#000000" stroke="none">
<path d="M0 1385 l0 -1385 1385 0 1385 0 0 1385 0 1385 -1385 0 -1385 0 0
-1385z m570 169 l0 -86 31 26 c50 42 126 31 154 -23 11 -22 15 -61 15 -146 0
-108 -1 -115 -20 -115 -18 0 -20 7 -20 88 0 116 -12 156 -50 172 -42 17 -85
-1 -99 -42 -6 -17 -11 -73 -11 -124 0 -94 0 -94 -25 -94 l-25 0 0 215 0 215
25 0 c25 0 25 -1 25 -86z m430 26 l0 -60 60 0 c53 0 60 -2 60 -20 0 -18 -7
-20 -60 -20 l-60 0 0 -85 c0 -46 5 -95 11 -109 22 -47 70 -45 88 4 13 40 51
42 51 4 0 -38 -50 -84 -93 -84 -75 0 -107 57 -107 193 l0 77 -35 0 c-28 0 -35
4 -35 20 0 16 7 20 35 20 l35 0 0 60 c0 57 1 60 25 60 24 0 25 -3 25 -60z
m360 0 l0 -60 60 0 c53 0 60 -2 60 -20 0 -18 -7 -20 -60 -20 l-60 0 0 -95 c0
-82 3 -98 20 -115 11 -11 25 -20 30 -20 15 0 50 38 50 55 0 9 9 15 25 15 31 0
33 -22 5 -67 -22 -37 -54 -48 -106 -39 -57 11 -74 50 -74 169 l0 97 -35 0
c-28 0 -35 4 -35 20 0 16 7 20 35 20 l35 0 0 60 c0 57 1 60 25 60 24 0 25 -3
25 -60z m758 -95 c117 -71 116 -79 -35 -172 -87 -53 -121 -69 -130 -61 -7 6
-13 14 -13 17 0 4 47 36 105 71 58 34 105 66 105 69 0 3 -47 35 -105 70 -58
35 -105 67 -105 70 0 4 5 12 12 19 8 8 20 6 47 -11 20 -12 73 -44 119 -72z
m-478 9 l0 -26 31 26 c55 46 131 31 164 -34 20 -38 20 -152 0 -190 -33 -65
-109 -80 -164 -34 l-31 26 0 -91 c0 -90 0 -91 -25 -91 l-25 0 0 220 0 220 25
0 c20 0 25 -5 25 -26z"/>
<path d="M1683 1468 c-39 -19 -55 -101 -32 -166 19 -55 101 -66 134 -19 22 31
20 139 -2 166 -21 25 -70 35 -100 19z"/>
</g>
</svg>
